PathFileType        4      (X/Y/Z)      C:\Users\pc\Desktop\IMUTRC\Sujet_04\Sujet_04_velo_60.trc         
DataRate	CameraRate	NumFrames	NumMarkers	Units	OrigDataRate	OrigDataStartFrame	OrigNumFrames
60.0	60.0	4	64	mm	60.0	1100	1257
Frame#	Time	pHipOrigin			pRightASI			pLeftASI			pRightCSI			pLeftCSI			pRightIschialTub			pLeftIschialTub			pSacrum			pL5SpinalProcess			pL3SpinalProcess			pT12SpinalProcess			pIJ			pT4SpinalProcess			pT8SpinalProcess			pPX			pC7SpinalProcess			pTopOfHead			pRightAuricularis			pLeftAuricularis			pBackOfHead			pRightAcromion			pLeftAcromion			pRightArmLatEpicondyle			pRightArmMedEpicondyle			pLeftArmLatEpicondyle			pLeftArmMedEpicondyle			pRightUlnarStyloid			pRightRadialStyloid			pRightOlecranon			pLeftUlnarStyloid			pLeftRadialStyloid			pLeftOlecranon			pRightTopOfHand			pRightPinky			pRightBallHand			pLeftTopOfHand			pLeftPinky			pLeftBallHand			pRightGreaterTrochanter			pRightKneeLatEpicondyle			pRightKneeMedEpicondyle			pRightPatella			pLeftGreaterTrochanter			pLeftKneeLatEpicondyle			pLeftKneeMedEpicondyle			pLeftPatella			pRightTibialTub			pRightLatMalleolus			pRightMedMalleolus			pLeftTibialTub			pLeftLatMalleolus			pLeftMedMalleolus			pRightHeelFoot			pRightFirstMetatarsal			pRightFifthMetatarsal			pRightPivotFoot			pRightHeelCenter			pRightToe			pLeftHeelFoot			pLeftFirstMetatarsal			pLeftFifthMetatarsal			pLeftPivotFoot			pLeftHeelCenter			pLeftToe			
		X1	Y1	Z1	X2	Y2	Z2	X3	Y3	Z3	X4	Y4	Z4	X5	Y5	Z5	X6	Y6	Z6	X7	Y7	Z7	X8	Y8	Z8	X9	Y9	Z9	X10	Y10	Z10	X11	Y11	Z11	X12	Y12	Z12	X13	Y13	Z13	X14	Y14	Z14	X15	Y15	Z15	X16	Y16	Z16	X17	Y17	Z17	X18	Y18	Z18	X19	Y19	Z19	X20	Y20	Z20	X21	Y21	Z21	X22	Y22	Z22	X23	Y23	Z23	X24	Y24	Z24	X25	Y25	Z25	X26	Y26	Z26	X27	Y27	Z27	X28	Y28	Z28	X29	Y29	Z29	X30	Y30	Z30	X31	Y31	Z31	X32	Y32	Z32	X33	Y33	Z33	X34	Y34	Z34	X35	Y35	Z35	X36	Y36	Z36	X37	Y37	Z37	X38	Y38	Z38	X39	Y39	Z39	X40	Y40	Z40	X41	Y41	Z41	X42	Y42	Z42	X43	Y43	Z43	X44	Y44	Z44	X45	Y45	Z45	X46	Y46	Z46	X47	Y47	Z47	X48	Y48	Z48	X49	Y49	Z49	X50	Y50	Z50	X51	Y51	Z51	X52	Y52	Z52	X53	Y53	Z53	X54	Y54	Z54	X55	Y55	Z55	X56	Y56	Z56	X57	Y57	Z57	X58	Y58	Z58	X59	Y59	Z59	X60	Y60	Z60	X61	Y61	Z61	X62	Y62	Z62	X63	Y63	Z63	X64	Y64	Z64	
1100	18.317	4.919999564491574E-14	1250.01928	5.863427156544783E-14	79.76679972844943	1330.16701	159.66924708989507	87.56306355504132	1364.67902	-132.15373236987514	40.73069942293719	1409.97246	141.19148314253965	47.092514969934484	1438.20956	-97.67364779386652	-68.2037360121918	1189.26674	51.57028002464454	-65.04468027271727	1203.35676	-67.843942882832	-69.15413251787254	1280.76635	1.804999113993695	-14.610421217136041	1383.38966	14.270200415746139	49.08400026775858	1486.58342	28.588736581478813	111.86877414482655	1578.25416	41.73444289826694	377.021916864464	1605.69264	67.88815417485759	261.9138270453951	1712.65134	65.95614343721512	186.60952551053802	1658.63007	54.751926639624244	277.3012998214581	1527.65556	52.52325852136691	309.80013818816514	1744.5393	73.06098255291067	551.2728064285894	1821.09321	94.51103146940005	466.3283720591338	1767.35716	154.61789646674336	473.584910224203	1778.19564	17.98917503697629	442.35186788974727	1819.0396	88.50438222974427	288.66039145107817	1684.92765	259.6148810351625	329.9719329771059	1722.29189	-116.77637096064277	305.5044895759117	1362.91063	290.1608926134729	267.7417939035483	1351.90102	235.83876093138446	378.1969430747621	1399.59034	-95.95602407935723	340.63136476723025	1396.16766	-40.53101751717722	399.0750451079017	1130.39666	212.91180575042983	445.0583380702182	1148.65095	233.90044312736012	264.92767550794946	1349.67627	254.5827131470286	425.59979059979344	1165.82139	22.658486819114273	476.0266698542616	1183.22	29.418730126909338	335.4564071028698	1390.23502	-73.94323212509829	587.3663446237321	1027.08881	322.02796266570795	499.66954484023586	1033.0785	264.1064881500106	454.0190677676384	1095.08603	224.9666324526328	636.32981574259	1051.33279	39.59682631864405	532.0104643814326	1064.39601	44.39887995734816	476.7340889971556	1130.68189	46.32477240216309	9.750411572265861	1212.94026	176.42086887511448	209.3068053938644	826.23462	174.36326321475173	215.42776034401788	822.52672	90.51608622866118	252.8166005148952	848.76726	131.52455131158143	32.865821325971794	1250.70382	-174.79795582788284	439.97235074955154	1099.02211	-149.95128115384165	442.1276213502057	1100.04891	-65.8254326586927	454.51009555717377	1144.77191	-106.00216296978525	256.2266852024237	776.26351	135.58853198899405	59.7608181151658	406.50013	131.47850294528865	70.82349894945666	407.24171	66.12253747890514	469.4250498573043	1048.82282	-108.01751317176448	201.039033576555	729.65804	-146.27736138928157	202.69532065027656	727.26217	-80.05158343784694	-5.546822923941711	338.67405	85.15261697225539	162.46757114976106	278.94831	60.413999089448936	151.97871111157238	273.07271	144.202961791075	179.72620260123472	267.53938	103.3459540670772	34.82821788334894	325.61083	89.25184914695758	263.87277092896534	234.73870999999997	111.5986194810486	128.23915050239006	661.71787	-112.52021706301473	288.03346743569807	598.62649	-58.57566678510426	292.4144834200298	592.92203	-142.8989895019489	312.36088819738546	586.81825	-97.8288261955609	168.46450268302092	647.85602	-109.48683950393733	395.9544174408096	552.30624	-91.12269419695093	
1101	18.333	4.919999564491574E-14	1250.01928	5.863427156544783E-14	79.7230968929695	1330.16701	159.7059181230277	87.68009436846597	1364.62197	-132.1029989646162	40.68700424790168	1409.97246	141.22814774779619	47.25324861883908	1438.20956	-97.65958542174022	-68.28410988080434	1189.26674	51.56324822229721	-65.00097743723734	1203.41381	-67.88061391596462	-69.14709428764911	1280.82339	1.7246329058255725	-14.566718381656102	1383.38966	14.233529382613522	49.208069311406646	1486.58342	28.559103778569607	112.08023477111396	1578.19712	41.63146679652417	377.2404080605304	1605.40741	67.70481829282278	262.21268568219796	1712.48021	65.77983169708318	186.86468897230537	1658.51598	54.612279504748855	277.4324006674534	1527.48443	52.41325184984515	310.14269200000354	1744.31112	72.84800620752225	551.680156017813	1820.6939	94.02029066168237	466.76536211171106	1767.01489	154.25121827479768	473.8978376610082	1777.85337	17.652137308384226	442.7818273725454	1818.69734	88.21806381809057	289.08330504320855	1684.75651	259.40893525955306	330.15375956791576	1722.06371	-117.00340201771306	305.91335488423636	1362.85359	290.1156817193364	268.063253540913	1351.78693	235.86689210351315	378.59023029185937	1399.36216	-96.2860312381703	340.95132400638283	1395.88244	-40.94842911438184	399.68833924016644	1130.39666	212.8439926231631	445.6786563443858	1148.70799	233.75226255935692	265.33654081627407	1349.56219	254.53750225289207	426.35121614783253	1165.7073	22.400307240033783	476.7047597639115	1183.16296	29.073152537313348	335.8059991449316	1389.94979	-74.23657467865485	588.074060908415	1027.2029	321.80644645931557	500.33356594988334	1033.13555	263.92163654887474	454.6393937022504	1095.14307	224.81844545675344	637.1756711034918	1051.38983	39.18493723256182	532.8126169068546	1064.33897	44.02366190439858	477.448837084186	1130.62484	46.02288232715824	9.6263489564939	1213.05435	176.45050933846812	211.99706979266676	827.83187	175.08451559459994	218.43949204062937	824.18102	91.26546335276201	255.4561379363147	850.64973	132.36284216529867	32.94618110626382	1250.58973	-174.79092525810384	439.70313257610235	1097.99531	-149.65090679793778	441.81470034127653	1099.07915	-65.48838726965624	454.3212371640166	1143.74511	-105.69475804410246	257.2207198987604	776.54874	135.79697526539996	47.79924214786532	414.03003	125.65409260464475	59.18338261952091	415.34205	60.32625831038996	471.1142477574226	1048.70873	-107.42433019970957	213.65254073778036	720.5309	-144.20204592116193	215.38919401967001	718.47729	-77.9692297395039	-18.575762798091926	347.80119	79.03237300513459	148.43907406815177	285.10913	54.61120796767149	137.6287467321539	279.29058	138.37204592504494	165.36921407991338	273.30089	97.59540564178363	21.54411577999971	333.99639	83.27123822639165	248.89545004515588	238.96000999999998	105.99625039118988	143.39624955307113	650.13781	-109.89843114775725	305.36749550477805	593.15021	-55.84441333103837	309.8725741048817	587.10348	-140.1973765112366	330.0600787393101	582.0265	-95.1061126024989	184.06713164728313	637.75912	-106.86656930778088	414.9027997129623	550.53786	-88.33119212280289	
1102	18.35	4.919999564491574E-14	1250.01928	5.863427156544783E-14	79.64273711267747	1330.22405	159.6988875532487	87.76749237898142	1364.50788	-132.17633460300536	40.69402838980457	1410.08655	141.14778030705972	47.303982024098	1438.15252	-97.77661623516487	-68.28410988080434	1189.32378	51.56324822229721	-65.00097743723734	1203.35676	-67.88061391596462	-69.14709428764911	1280.82339	1.7246329058255725	-14.523023206620596	1383.4467	14.196864777357002	49.29546732192209	1486.58342	28.485768140180472	112.21133561710934	1578.14007	41.52146012500242	377.41520408156134	1605.17923	67.5581470160445	262.5115507468769	1712.30908	65.60352761739574	187.08318016837177	1658.45893	54.42894362271406	277.52682281987177	1527.3133	52.25954877071956	310.44155706468246	1744.13999	72.67170212783478	552.0734508953547	1820.23754	93.69027707499322	467.151617526461	1766.67262	154.00158498459714	474.16705583445747	1777.5111	17.351762952480357	443.13141175416285	1818.41211	87.9247276924101	289.3018038997194	1684.58538	259.2255929496422	330.3355861587256	1721.89258	-117.23043307478333	306.24887689372736	1362.7395	289.9830792425605	268.44248604632844	1351.67284	235.6976121657286	378.99054165085954	1399.19103	-96.69640583771985	341.2346045519584	1395.65426	-41.409537119190276	400.2790247114248	1130.45371	212.57174301151184	446.2693418156441	1148.82208	233.48001294770563	265.6720704862095	1349.4481	254.40489334824008	427.03633019938536	1165.65025	21.974362209701297	477.38987381546434	1183.22	28.647207506980976	336.12595072363973	1389.77866	-74.6539798479834	588.8028777954478	1027.37404	321.34383039585055	501.0553522671371	1033.30668	263.5393802657018	455.2737743485443	1095.25716	224.5095312398457	637.9918783405956	1051.56097	38.64899195858379	533.6218012346237	1064.45306	43.56806998283645	478.2143250043514	1130.62484	45.60396909917304	9.743379769918548	1213.39662	176.50124274372706	216.34690571655432	830.45593	176.27488956329933	222.91338934772057	826.63393	92.42621094642833	259.6452402112977	853.61605	133.53915376187183	32.9095165010073	1250.19042	-174.83462043313935	438.42581733419007	1094.45854	-149.39824206953523	440.5810738465237	1095.59943	-65.2723948069546	453.40908439494905	1140.09425	-105.45063317670378	259.60359346020044	777.91781	136.3293704846593	37.32242759629865	423.38535	120.44547389706202	49.021018884304944	425.21078	55.2261253599202	471.6783242035294	1046.08468	-106.92958259997062	225.07309922940692	709.57833	-142.83846119019114	226.76605733626107	707.80994	-76.5689804032766	-30.126971826287313	358.75377	73.60828045136697	135.66831377308205	292.92425	49.2423895485897	124.61688658001148	287.10569	132.98212690361348	152.27698648703452	280.71669	92.19846247844927	9.708110487127783	344.20738	77.86272376385133	235.10956087927588	244.72152	100.66009621321938	157.32374298934133	636.78936	-108.03207757256024	321.3267406530049	586.13372	-53.597853129174894	325.9855287601103	579.68767	-137.85638649651042	346.3774698789232	575.6375	-92.78773124877901	198.4697954604881	625.95088	-104.87766883591291	432.29458532920404	547.34336	-85.7973369228981	
1103	18.367	4.919999564491574E-14	1250.01928	5.863427156544783E-14	79.64976125458034	1330.45223	159.61852011251224	87.73785191562779	1364.33675	-132.30039721877733	40.671426156674364	1410.25769	140.94335148311964	47.325068538127184	1438.03843	-98.0177173248059	-68.29113402270724	1189.38083	51.64361566303367	-64.96431283198082	1203.29972	-67.83691874092911	-69.14007014574622	1280.82339	1.6442654650891129	-14.552656009529795	1383.4467	14.07279573370894	49.31656149639572	1486.58342	28.24466062266334	112.27612373405015	1578.14007	41.243702090549306	377.523695033982	1604.95106	67.24371794845877	262.6933709098107	1712.19499	65.37648889988097	187.26500675918163	1658.40189	54.20191256564375	277.591618597257	1527.19921	51.98178430839036	310.66707240265174	1743.96885	72.40799880506353	552.3863706717156	1819.83823	93.3532457742773	467.46453853539015	1766.27331	153.66453959556068	474.4362804357828	1777.22588	17.051396257020883	443.5176748293572	1818.12689	87.67508797433354	289.36659967710466	1684.47129	258.9478284873129	330.36371090297826	1721.83553	-117.55190037259253	306.47439989214104	1362.68245	289.7193694919132	268.71170421977763	1351.61579	235.3972378098247	379.32456326213844	1399.24807	-97.27455108382901	341.53195389753625	1395.54017	-42.03137111245886	400.9641387629776	1130.62484	212.14579798117938	446.87409608690496	1149.05026	233.04703734759426	265.94128865965877	1349.33401	254.1045189923363	427.77217888876544	1165.7073	21.43137227762375	478.08905789958794	1183.33409	28.060522399867864	336.5036598495097	1389.66457	-75.26878327147298	589.5824280877396	1027.60222	320.76418351896086	501.83490255942877	1033.47781	262.9597333888121	455.9659266303205	1095.4283	224.0032200013451	638.8151250404912	1051.84619	38.03266638811698	534.4013515269154	1064.62419	42.988423105946765	478.993868868767	1130.79598	45.02431456183899	10.255207091665383	1214.1382	176.66749124330957	222.48037454873074	834.22087	177.90475874581688	228.96649963217328	830.11366	94.04903547084635	265.35428096481104	857.83736	134.92942471809712	32.74175228232373	1249.44884	-174.76832302497365	436.0530070132994	1088.18363	-149.11995133024485	438.24493455876564	1089.43861	-64.95040123218428	451.6932710418031	1133.70525	-105.2768265978128	263.6460244584051	780.48482	137.33088606020152	28.62373876278729	434.50905	116.20223366929446	40.64379734860275	436.67675	51.011009876405254	471.1539361404367	1040.72248	-106.48956876963575	234.9496153785924	696.80033	-142.33879332382543	236.562199616834	695.20308	-76.07634433925821	-40.06079001790029	371.75994	69.13551809360874	124.22862713550941	302.50775	44.394927754398594	113.09684016214686	296.5751	128.12763453964337	140.5961999923892	289.6727	87.32990008190842	-0.5401431999470319	356.35789	73.28146279322794	222.63917494011005	251.90915	95.56049596758683	169.99902215019432	621.5014	-107.12559282180817	335.6334665946905	577.69111	-51.900779491762506	340.8548154288017	570.73166	-136.1100951729401	361.23268651504384	567.82239	-90.88069984842798	211.4961606337389	612.26016	-103.81899152982851	448.0860726866234	542.95092	-83.4844716524245	
